<?xml version="1.0" encoding="utf-8"?><svg viewBox="0 0 100 96" xmlns="http://www.w3.org/2000/svg" xmlns:xlink="http://www.w3.org/1999/xlink"><style>:root>svg{display:none}:root>svg:target{display:block}</style><svg fill="none" viewBox="0 0 20 20" id="arrow-right" xmlns="http://www.w3.org/2000/svg"><path d="M4.167 10h11.666M10 4.167 15.833 10 10 15.833" stroke="inherit" stroke-width="1.667" stroke-linecap="round" stroke-linejoin="round"/></svg><svg fill="none" viewBox="0 0 20 20" id="award" xmlns="http://www.w3.org/2000/svg"><path d="M10 12.5A5.833 5.833 0 1 0 10 .833 5.833 5.833 0 0 0 10 12.5Z" stroke="#fff" stroke-width="1.667" stroke-linecap="round" stroke-linejoin="round"/><path d="m6.842 11.575-1.009 7.592 4.167-2.5 4.167 2.5-1.009-7.6" stroke="#fff" stroke-width="1.667" stroke-linecap="round" stroke-linejoin="round"/></svg><svg fill="none" viewBox="0 0 20 20" id="chevron-left" xmlns="http://www.w3.org/2000/svg"><path d="m12.5 5-5 5 5 5" stroke="#fff" stroke-width="1.667" stroke-linecap="round" stroke-linejoin="round"/></svg><svg fill="none" viewBox="0 0 20 20" id="chevron-right" xmlns="http://www.w3.org/2000/svg"><path d="m7.5 15 5-5-5-5" stroke="#fff" stroke-width="1.667" stroke-linecap="round" stroke-linejoin="round"/></svg><svg fill="inherit" viewBox="0 0 20 20" id="close" xmlns="http://www.w3.org/2000/svg"><path fill-rule="evenodd" clip-rule="evenodd" d="m10.678 9.678 6.053-6.052a.834.834 0 0 0-1.178-1.179L9.5 8.5 3.59 2.59a.834.834 0 0 0-1.18 1.178l5.911 5.91-5.732 5.733a.834.834 0 0 0 1.179 1.178L9.5 10.857l5.874 5.874a.834.834 0 0 0 1.179-1.178l-5.875-5.875Z"/></svg><svg fill="none" viewBox="0 0 20 20" id="facebook" xmlns="http://www.w3.org/2000/svg"><path d="M15 1.667h-2.5a4.167 4.167 0 0 0-4.167 4.166v2.5h-2.5v3.334h2.5v6.666h3.334v-6.666h2.5L15 8.333h-3.333v-2.5A.833.833 0 0 1 12.5 5H15V1.667Z" stroke="inherit" stroke-width="1.667" stroke-linecap="round" stroke-linejoin="round"/></svg><svg fill="inherit" viewBox="0 0 20 20" id="hamburger" xmlns="http://www.w3.org/2000/svg"><path d="M19.167 10.816H.833a.834.834 0 0 1 0-1.667h18.334a.834.834 0 0 1 0 1.667ZM19.167 4.427H.833a.834.834 0 0 1 0-1.667h18.334a.834.834 0 0 1 0 1.667ZM19.167 17.205H.833a.834.834 0 0 1 0-1.667h18.334a.834.834 0 0 1 0 1.667Z"/></svg><svg fill="none" viewBox="0 0 20 20" id="instagram" xmlns="http://www.w3.org/2000/svg"><g clip-path="url(#ha)" stroke="inherit" stroke-width="1.667" stroke-linecap="round" stroke-linejoin="round"><path d="M14.167 1.667H5.833a4.167 4.167 0 0 0-4.166 4.166v8.334a4.167 4.167 0 0 0 4.166 4.166h8.334a4.167 4.167 0 0 0 4.166-4.166V5.833a4.167 4.167 0 0 0-4.166-4.166Z"/><path d="M13.333 9.475a3.333 3.333 0 1 1-6.594.978 3.333 3.333 0 0 1 6.594-.978ZM14.583 5.417h.01"/></g><defs><clipPath id="ha"><path fill="inherit" d="M0 0h20v20H0z"/></clipPath></defs></svg><svg fill="none" viewBox="0 0 96 96" id="logo" xmlns="http://www.w3.org/2000/svg"><path d="M92.25 77.736c-.384-1.63-.962-3.236-1.838-4.692-1.742-2.932-4.398-5.17-7.188-6.978-2.818-1.802-5.832-3.248-8.916-4.438-5.906-2.282-5.62-2.206-9.606-3.628-8.832-3.148-13.736-7.828-14.044-12.904-.148-2.458 2.252-10.468 12.148-8.564 2.35.452 4.574 1.086 6.764 2.074 2.018.912 7.908 3.768 9.972 7.834.156 1.794.788 2.488 3.312 3.68 1.898.896 3.814 1.87 3.986 4.078.01.12.102.218.262.242.104 0 .2-.062.242-.162.364-.878 1.83-1.978 2.922-1.678a.254.254 0 0 0 .296-.122.263.263 0 0 0-.042-.316l-1.726-1.708a10.889 10.889 0 0 1-1.878-2.498c-.156-.284-.29-.564-.408-.834l-.228-.562c-1.448-3.79-4.146-7.85-6.93-10.48a29.295 29.295 0 0 0-4.95-3.826c-1.782-1.076-3.638-2.032-5.666-2.604l-.148.512c1.894.654 3.666 1.698 5.324 2.838a28.168 28.168 0 0 1 4.546 3.958 23.925 23.925 0 0 1 4.564 7.024l-3.986-4.954.11 1.716-3.266-3.682.202 1.724-3.172-2.558.272 1.168c-.714-.472-7.05-2.992-10.212-4.18-3.162-1.188-9.41-7.048-7.608-14.464 0 0-2.954-1.148-5.07-1.93a156.042 156.042 0 0 0-6.28-2.092 288.058 288.058 0 0 0-12.67-3.636 253.517 253.517 0 0 0-12.818-3.016c-4.3-.882-8.624-1.668-13-2.106l-.078.666C9.75 7.3 14 8.304 18.218 9.402a253.827 253.827 0 0 1 12.558 3.658c4.152 1.33 8.278 2.74 12.354 4.256 2.036.758 4.066 1.538 6.054 2.376.422.176.852.36 1.282.544a113.776 113.776 0 0 0-7.346-1.182 163.83 163.83 0 0 0-13.278-1.116c-4.428-.2-8.86-.232-13.284-.068-4.422.172-8.846.518-13.21 1.266l.086.608c4.36-.448 8.75-.492 13.126-.366 4.378.134 8.748.462 13.094.954 4.344.492 8.67 1.134 12.938 1.972 2.632.522 5.248 1.128 7.806 1.842-2.022-.202-4.034-.254-6.028-.23-3.954.06-7.852.494-11.696 1.148a90.287 90.287 0 0 0-11.35 2.692c-3.702 1.158-7.362 2.534-10.722 4.498l.232.416c3.44-1.656 7.136-2.716 10.852-3.558a88.505 88.505 0 0 1 11.288-1.736c3.782-.336 7.584-.448 11.326-.202 3.328.22 6.634.726 9.66 1.698.13.89.732 2.692 1.022 3.592-8.51 3.914-9.588 10.954-8.892 14.73.818 4.428 4.022 7.804 7.808 9.99 3.134 1.782 6.336 2.918 9.452 4.094 3.11 1.166 6.19 2.286 8.934 3.836 2.704 1.494 4.952 3.802 6.782 6.42 3.674 5.276 5.144 11.928 5.584 18.49l.73-.02c.016-6.646-.94-13.604-4.504-19.624-1.176-1.972-2.628-3.842-4.342-5.466 1.984.768 3.922 1.636 5.774 2.666 2.746 1.558 5.334 3.498 7.096 6.102.888 1.294 1.51 2.75 1.966 4.266.404 1.534.59 3.13.658 4.742h.624c.022-1.646-.07-3.31-.402-4.954Z" fill="#fff"/></svg><svg fill="none" viewBox="0 0 20 20" id="map-pin" xmlns="http://www.w3.org/2000/svg"><path d="M17.5 8.333c0 5.834-7.5 10.834-7.5 10.834s-7.5-5-7.5-10.834a7.5 7.5 0 0 1 15 0Z" stroke="#111418" stroke-width="1.667" stroke-linecap="round" stroke-linejoin="round"/><path d="M10 10.833a2.5 2.5 0 1 0 0-5 2.5 2.5 0 0 0 0 5Z" stroke="#111418" stroke-width="1.667" stroke-linecap="round" stroke-linejoin="round"/></svg><svg fill="none" viewBox="0 0 20 20" id="mouse" xmlns="http://www.w3.org/2000/svg"><rect x="4" y="1" width="12" height="18" rx="6" stroke="inherit" stroke-width="1.67"/><path d="M10 6v3" stroke="inherit" stroke-width="1.67" stroke-linecap="round"/></svg><svg fill="none" viewBox="0 0 20 20" id="search" xmlns="http://www.w3.org/2000/svg"><path d="M9.167 15.833a6.667 6.667 0 1 0 0-13.333 6.667 6.667 0 0 0 0 13.333ZM17.5 17.5l-3.625-3.625" stroke="inherit" stroke-width="1.667" stroke-linecap="round" stroke-linejoin="round"/></svg><svg fill="none" viewBox="0 0 21 20" id="send" xmlns="http://www.w3.org/2000/svg"><path d="m18.833 1.667-9.166 9.166M18.833 1.667 13 18.333l-3.333-7.5-7.5-3.333 16.666-5.833Z" stroke="#fff" stroke-width="1.667" stroke-linecap="round" stroke-linejoin="round"/></svg><svg fill="none" viewBox="0 0 20 20" id="shield" xmlns="http://www.w3.org/2000/svg"><path d="M10 18.333S16.667 15 16.667 10V4.167L10 1.667l-6.667 2.5V10c0 5 6.667 8.333 6.667 8.333Z" stroke="#fff" stroke-width="1.667" stroke-linecap="round" stroke-linejoin="round"/></svg><svg fill="none" viewBox="0 0 20 20" id="shopping-bag" xmlns="http://www.w3.org/2000/svg"><path d="M5 1.667 2.5 5v11.667a1.667 1.667 0 0 0 1.667 1.666h11.666a1.667 1.667 0 0 0 1.667-1.666V5L15 1.667H5ZM2.5 5h15" stroke="inherit" stroke-width="1.667" stroke-linecap="round" stroke-linejoin="round"/><path d="M13.333 8.333a3.333 3.333 0 0 1-6.666 0" stroke="inherit" stroke-width="1.667" stroke-linecap="round" stroke-linejoin="round"/></svg><svg fill="none" viewBox="0 0 100 84" id="subscribe-arrow" xmlns="http://www.w3.org/2000/svg"><g clip-path="url(#pa)" stroke="#111418" stroke-width="2.087" stroke-linecap="round"><g clip-path="url(#pb)" stroke-linejoin="round"><path d="M16.803 80.712V61.324M16.803 80.712 5.346 56.917l11.457 4.407 11.456-4.407-11.456 23.795Z"/></g><path d="M98.134 28.91C95.452 11.63 87.105-1.792 67.294 3.96 52.03 8.39 42.268 29.004 53.101 42.545c2.595 3.245 8.381 2.746 11.687.928 5.23-2.877 6.475-7.935 4.962-13.542-2.749-10.187-14.03-20.365-25.136-17.16-17.38 5.017-26.017 22.634-27.78 39.56"/></g><defs><clipPath id="pa"><path fill="#fff" transform="translate(.87)" d="M0 0h99.13v84H0z"/></clipPath><clipPath id="pb"><path fill="#fff" transform="rotate(135 5.911 39.404)" d="M0 0h29.912v29.912H0z"/></clipPath></defs></svg><svg fill="none" viewBox="0 0 20 20" id="tag" xmlns="http://www.w3.org/2000/svg"><path d="m17.158 11.175-5.975 5.975a1.666 1.666 0 0 1-2.358 0L1.667 10V1.667H10l7.158 7.158a1.666 1.666 0 0 1 0 2.35v0ZM5.833 5.833h.01" stroke="#fff" stroke-width="1.667" stroke-linecap="round" stroke-linejoin="round"/></svg><svg fill="none" viewBox="0 0 20 20" id="truck" xmlns="http://www.w3.org/2000/svg"><path d="M13.333 2.5H.833v10.833h12.5V2.5ZM13.333 6.667h3.334l2.5 2.5v4.166h-5.834V6.667ZM4.583 17.5a2.083 2.083 0 1 0 0-4.167 2.083 2.083 0 0 0 0 4.167ZM15.417 17.5a2.083 2.083 0 1 0 0-4.167 2.083 2.083 0 0 0 0 4.167Z" stroke="#fff" stroke-width="1.667" stroke-linecap="round" stroke-linejoin="round"/></svg><svg fill="none" viewBox="0 0 20 20" id="youtube" xmlns="http://www.w3.org/2000/svg"><path d="M18.783 5.35a2.317 2.317 0 0 0-1.616-1.667c-1.434-.35-7.167-.35-7.167-.35s-5.733 0-7.167.384a2.317 2.317 0 0 0-1.616 1.666 24.167 24.167 0 0 0-.384 4.409c-.009 1.489.12 2.976.384 4.441a2.317 2.317 0 0 0 1.616 1.6c1.434.384 7.167.384 7.167.384s5.733 0 7.167-.384a2.317 2.317 0 0 0 1.616-1.666c.26-1.444.389-2.909.384-4.375.009-1.49-.12-2.976-.384-4.442v0Z" stroke="inherit" stroke-width="1.667" stroke-linecap="round" stroke-linejoin="round"/><path d="m8.125 12.517 4.792-2.725-4.792-2.725v5.45Z" stroke="inherit" stroke-width="1.667" stroke-linecap="round" stroke-linejoin="round"/></svg></svg>